<svg width="109" height="109" viewBox="0 0 109 109" fill="none" xmlns="http://www.w3.org/2000/svg">
<circle cx="54.5" cy="54.5" r="54.5" fill="#EFE9FE"/>
<path d="M79 40V34C79 30.691 76.309 28 73 28H34C29.038 28 25 32.038 25 37V73C25 79.603 30.382 82 34 82H79C82.309 82 85 79.309 85 76V46C85 42.691 82.309 40 79 40ZM73 67H67V55H73V67ZM34 40C33.2276 39.9654 32.4982 39.6343 31.9638 39.0755C31.4294 38.5166 31.1312 37.7732 31.1312 37C31.1312 36.2268 31.4294 35.4834 31.9638 34.9245C32.4982 34.3657 33.2276 34.0346 34 34H73V40H34Z" fill="#A27EFA"/>
<path d="M83.707 21.293C83.6143 21.2 83.5041 21.1262 83.3828 21.0759C83.2614 21.0256 83.1313 20.9998 83 21H75C74.8687 20.9998 74.7386 21.0256 74.6172 21.0759C74.4959 21.1262 74.3857 21.2 74.293 21.293L69.293 26.293C69.2 26.3857 69.1262 26.4959 69.0759 26.6172C69.0256 26.7386 68.9998 26.8687 69 27V35C69 35.266 69.105 35.52 69.293 35.707L74.293 40.707C74.3857 40.8 74.4959 40.8738 74.6172 40.9241C74.7386 40.9744 74.8687 41.0002 75 41H83C83.266 41 83.52 40.895 83.707 40.707L88.707 35.707C88.8 35.6143 88.8738 35.5041 88.9241 35.3828C88.9744 35.2614 89.0002 35.1313 89 35V27C89.0002 26.8687 88.9744 26.7386 88.9241 26.6172C88.8738 26.4959 88.8 26.3857 88.707 26.293L83.707 21.293ZM80 36H78V34H80V36ZM80 32H78V26H80V32Z" fill="#DC3545"/>
</svg>
