<svg width="109" height="109" viewBox="0 0 109 109" fill="none" xmlns="http://www.w3.org/2000/svg">
<circle cx="54.5" cy="54.5" r="54.5" fill="#EFE9FE"/>
<path d="M83 26.5H27C23.1395 26.5 20 29.6395 20 33.5V82.5C20 86.3605 23.1395 89.5 27 89.5H83C86.8605 89.5 90 86.3605 90 82.5V33.5C90 29.6395 86.8605 26.5 83 26.5ZM72.5 37H79.5V44H72.5V37ZM62 37H69V44H62V37ZM27 82.5V51H83.0035L83.007 82.5H27Z" fill="#A27EFA"/>
<path d="M54.001 64H56.001V69H54.001V64ZM54 70H56V72H54V70Z" fill="#DC3545"/>
<path d="M56.7679 58.2C56.4199 57.545 55.7419 57.138 54.9999 57.138C54.2579 57.138 53.5799 57.545 53.2319 58.201L45.8939 72.064C45.7311 72.3684 45.6505 72.7101 45.6599 73.0552C45.6694 73.4003 45.7687 73.737 45.9479 74.032C46.1246 74.3284 46.3756 74.5736 46.676 74.7433C46.9764 74.9131 47.3159 75.0015 47.6609 75H62.3389C63.0469 75 63.6879 74.638 64.0529 74.032C64.2319 73.7369 64.331 73.4002 64.3405 73.0551C64.35 72.7101 64.2695 72.3685 64.1069 72.064L56.7679 58.2ZM47.6609 73L54.9999 59.137L62.3439 73H47.6609Z" fill="#DC3545"/>
</svg>
