<svg width="109" height="109" viewBox="0 0 109 109" fill="none" xmlns="http://www.w3.org/2000/svg">
<circle cx="54.5" cy="54.5" r="54.5" fill="#EFE9FE"/>
<path d="M79 22H31C29.4087 22 27.8826 22.6321 26.7574 23.7574C25.6321 24.8826 25 26.4087 25 28V40C25 41.5913 25.6321 43.1174 26.7574 44.2426C27.8826 45.3679 29.4087 46 31 46H79C80.5913 46 82.1174 45.3679 83.2426 44.2426C84.3679 43.1174 85 41.5913 85 40V28C85 26.4087 84.3679 24.8826 83.2426 23.7574C82.1174 22.6321 80.5913 22 79 22ZM64 37H58V31H64V37ZM76 37H70V31H76V37ZM79 52H31C29.4087 52 27.8826 52.6321 26.7574 53.7574C25.6321 54.8826 25 56.4087 25 58V70C25 71.5913 25.6321 73.1174 26.7574 74.2426C27.8826 75.3679 29.4087 76 31 76H79C80.5913 76 82.1174 75.3679 83.2426 74.2426C84.3679 73.1174 85 71.5913 85 70V58C85 56.4087 84.3679 54.8826 83.2426 53.7574C82.1174 52.6321 80.5913 52 79 52ZM64 67H58V61H64V67ZM76 67H70V61H76V67Z" fill="#A27EFA"/>
<path d="M59.707 80.293C59.6143 80.2 59.5041 80.1262 59.3828 80.0759C59.2614 80.0256 59.1313 79.9998 59 80H51C50.8687 79.9998 50.7386 80.0256 50.6172 80.0759C50.4959 80.1262 50.3857 80.2 50.293 80.293L45.293 85.293C45.2 85.3857 45.1262 85.4959 45.0759 85.6172C45.0256 85.7386 44.9998 85.8687 45 86V94C45 94.266 45.105 94.52 45.293 94.707L50.293 99.707C50.3857 99.8 50.4959 99.8738 50.6172 99.9241C50.7386 99.9744 50.8687 100 51 100H59C59.266 100 59.52 99.895 59.707 99.707L64.707 94.707C64.8 94.6143 64.8738 94.5041 64.9241 94.3828C64.9744 94.2614 65.0002 94.1313 65 94V86C65.0002 85.8687 64.9744 85.7386 64.9241 85.6172C64.8738 85.4959 64.8 85.3857 64.707 85.293L59.707 80.293ZM56 95H54V93H56V95ZM56 91H54V85H56V91Z" fill="#DC3545"/>
</svg>
