<svg width="109" height="109" viewBox="0 0 109 109" fill="none" xmlns="http://www.w3.org/2000/svg">
<circle cx="54.5" cy="54.5" r="54.5" fill="#EFE9FE"/>
<path d="M79 28H31C29.4087 28 27.8826 28.6321 26.7574 29.7574C25.6321 30.8826 25 32.4087 25 34V46C25 47.5913 25.6321 49.1174 26.7574 50.2426C27.8826 51.3679 29.4087 52 31 52H79C80.5913 52 82.1174 51.3679 83.2426 50.2426C84.3679 49.1174 85 47.5913 85 46V34C85 32.4087 84.3679 30.8826 83.2426 29.7574C82.1174 28.6321 80.5913 28 79 28ZM64 43H58V37H64V43ZM76 43H70V37H76V43ZM79 58H31C29.4087 58 27.8826 58.6321 26.7574 59.7574C25.6321 60.8826 25 62.4087 25 64V76C25 77.5913 25.6321 79.1174 26.7574 80.2426C27.8826 81.3679 29.4087 82 31 82H79C80.5913 82 82.1174 81.3679 83.2426 80.2426C84.3679 79.1174 85 77.5913 85 76V64C85 62.4087 84.3679 60.8826 83.2426 59.7574C82.1174 58.6321 80.5913 58 79 58ZM64 73H58V67H64V73ZM76 73H70V67H76V73Z" fill="#A27EFA"/>
<path d="M55 45C49.486 45 45 49.486 45 55C45 60.514 49.486 65 55 65C60.514 65 65 60.514 65 55C65 49.486 60.514 45 55 45ZM59.207 57.793L57.793 59.207L55 56.414L52.207 59.207L50.793 57.793L53.586 55L50.793 52.207L52.207 50.793L55 53.586L57.793 50.793L59.207 52.207L56.414 55L59.207 57.793Z" fill="#DC3545"/>
</svg>
