<svg width="109" height="109" viewBox="0 0 109 109" fill="none" xmlns="http://www.w3.org/2000/svg">
<circle cx="54.5" cy="54.5" r="54.5" fill="#EFE9FE"/>
<path d="M83 26.5H27C23.1395 26.5 20 29.6395 20 33.5V82.5C20 86.3605 23.1395 89.5 27 89.5H83C86.8605 89.5 90 86.3605 90 82.5V33.5C90 29.6395 86.8605 26.5 83 26.5ZM72.5 37H79.5V44H72.5V37ZM62 37H69V44H62V37ZM27 82.5V51H83.0035L83.007 82.5H27Z" fill="#A27EFA"/>
<path d="M55 57C49.486 57 45 61.486 45 67C45 72.514 49.486 77 55 77C60.514 77 65 72.514 65 67C65 61.486 60.514 57 55 57ZM59.207 69.793L57.793 71.207L55 68.414L52.207 71.207L50.793 69.793L53.586 67L50.793 64.207L52.207 62.793L55 65.586L57.793 62.793L59.207 64.207L56.414 67L59.207 69.793Z" fill="#E15554"/>
</svg>
