<svg width="109" height="109" viewBox="0 0 109 109" fill="none" xmlns="http://www.w3.org/2000/svg">
<circle cx="54.5" cy="54.5" r="54.5" fill="#EFE9FE"/>
<path d="M83 26.5H27C23.1395 26.5 20 29.6395 20 33.5V82.5C20 86.3605 23.1395 89.5 27 89.5H83C86.8605 89.5 90 86.3605 90 82.5V33.5C90 29.6395 86.8605 26.5 83 26.5ZM72.5 37H79.5V44H72.5V37ZM62 37H69V44H62V37ZM27 82.5V51H83.0035L83.007 82.5H27Z" fill="#A27EFA"/>
<path d="M63 66C63 64.897 62.103 64 61 64H60V61C60 58.243 57.757 56 55 56C52.243 56 50 58.243 50 61V64H49C47.897 64 47 64.897 47 66V74C47 75.103 47.897 76 49 76H61C62.103 76 63 75.103 63 74V66ZM52 61C52 59.346 53.346 58 55 58C56.654 58 58 59.346 58 61V64H52V61Z" fill="#DC3545"/>
</svg>
