<svg width="109" height="109" viewBox="0 0 109 109" fill="none" xmlns="http://www.w3.org/2000/svg">
<circle cx="54.5" cy="54.5" r="54.5" fill="#EFE9FE"/>
<path d="M83 26.5H27C23.1395 26.5 20 29.6395 20 33.5V82.5C20 86.3605 23.1395 89.5 27 89.5H83C86.8605 89.5 90 86.3605 90 82.5V33.5C90 29.6395 86.8605 26.5 83 26.5ZM72.5 37H79.5V44H72.5V37ZM62 37H69V44H62V37ZM27 82.5V51H83.0035L83.007 82.5H27Z" fill="#A27EFA"/>
<path d="M55 56C49.486 56 45 60.486 45 66C45 71.514 49.486 76 55 76C60.514 76 65 71.514 65 66C65 60.486 60.514 56 55 56ZM47 66C47 64.154 47.634 62.458 48.688 61.103L59.897 72.312C58.499 73.4058 56.7751 74.0001 55 74C50.589 74 47 70.411 47 66ZM61.312 70.897L50.103 59.688C51.501 58.5943 53.225 58.0001 55 58C59.411 58 63 61.589 63 66C62.9995 67.775 62.4053 69.4987 61.312 70.897Z" fill="#DC3545"/>
</svg>
