<svg width="109" height="109" viewBox="0 0 109 109" fill="none" xmlns="http://www.w3.org/2000/svg">
<circle cx="54.5" cy="54.5" r="54.5" fill="#EFE9FE"/>
<path d="M83 27H27C25.1435 27 23.363 27.7375 22.0503 29.0503C20.7375 30.363 20 32.1435 20 34V76C20 77.8565 20.7375 79.637 22.0503 80.9497C23.363 82.2625 25.1435 83 27 83H83C84.8565 83 86.637 82.2625 87.9497 80.9497C89.2625 79.637 90 77.8565 90 76V34C90 32.1435 89.2625 30.363 87.9497 29.0503C86.637 27.7375 84.8565 27 83 27ZM83 43.45L55 62.119L27 43.45V35.0395L55 53.705L83 35.0395V43.45Z" fill="#A27EFA"/>
<path d="M55 45C49.486 45 45 49.486 45 55C45 60.514 49.486 65 55 65C60.514 65 65 60.514 65 55C65 49.486 60.514 45 55 45ZM59.207 57.793L57.793 59.207L55 56.414L52.207 59.207L50.793 57.793L53.586 55L50.793 52.207L52.207 50.793L55 53.586L57.793 50.793L59.207 52.207L56.414 55L59.207 57.793Z" fill="#DC3545"/>
</svg>
